<svg width="1114" height="1114" xmlns="http://www.w3.org/2000/svg" xmlns:xlink="http://www.w3.org/1999/xlink" xml:space="preserve" overflow="hidden"><defs><clipPath id="clip0"><rect x="1640" y="398" width="1114" height="1114"/></clipPath><clipPath id="clip1"><rect x="1640" y="398" width="1114" height="1114"/></clipPath></defs><g clip-path="url(#clip0)" transform="translate(-1640 -398)"><g clip-path="url(#clip1)"><path d="M2660.34 947.143 2651.48 956.001 2660.34 964.857C2785.22 1089.74 2785.22 1293.45 2660.34 1418.34 2535.45 1543.22 2331.74 1543.22 2206.86 1418.34L2198 1409.48 2189.14 1418.34C2064.26 1543.22 1860.55 1543.22 1735.66 1418.34 1610.78 1293.45 1610.78 1089.74 1735.66 964.857L1744.52 956.001 1735.66 947.143C1610.78 822.259 1610.78 618.547 1735.66 493.663 1860.55 368.779 2064.26 368.779 2189.14 493.663L2198 502.52 2206.86 493.663C2331.74 368.779 2535.45 368.779 2660.34 493.663 2785.22 618.547 2785.22 822.259 2660.34 947.143M2149.29 533.52C2045.66 429.893 1878.26 429.893 1774.63 533.52 1671.01 637.147 1671.01 804.545 1774.63 908.172L1783.49 917.029 1804.75 895.772 1795.89 886.916C1704.66 795.688 1704.66 646.89 1795.89 555.663 1887.12 464.435 2035.92 464.435 2127.14 555.663L2427.4 855.915 2448.65 834.659 2149.29 533.52ZM2620.48 533.52C2516.85 429.893 2349.46 429.893 2245.83 533.52L2236.97 542.377 2258.23 563.634 2267.09 554.777C2358.31 463.549 2507.11 463.549 2598.34 554.777 2689.57 646.004 2689.57 794.803 2598.34 886.03L2298.08 1187.17C2236.97 1248.28 2291 1303.2 2296.31 1308.51 2302.51 1314.71 2306.94 1318.25 2306.94 1318.25 2376.91 1388.22 2489.4 1388.22 2559.37 1318.25 2629.34 1248.28 2629.34 1135.8 2559.37 1065.83L2550.51 1056.97 2529.25 1078.23 2538.11 1087.08C2595.68 1144.66 2595.68 1238.54 2538.11 1296.11 2480.54 1353.68 2386.66 1353.68 2329.08 1296.11L2318.46 1286.37C2291 1258.91 2297.2 1231.45 2320.23 1208.43L2621.37 907.287C2724.11 804.545 2724.11 636.261 2620.48 533.52M1857.89 615.891C1915.46 558.32 2009.35 558.32 2066.92 615.891L2367.17 916.144 2388.43 894.887 2088.17 594.633C2018.2 524.662 1905.72 524.662 1835.75 594.633 1765.78 664.604 1765.78 777.088 1835.75 847.058L1844.61 855.915 1865.86 834.659 1857 825.802C1800.32 767.345 1800.32 673.461 1857.89 615.891M2245.83 1379.37C2349.46 1482.99 2516.85 1482.99 2620.48 1379.37 2724.11 1275.74 2724.11 1108.34 2620.48 1004.71L2611.62 995.857 2590.37 1017.11 2599.22 1025.97C2690.45 1117.2 2690.45 1266 2599.22 1357.22 2508 1448.45 2359.2 1448.45 2267.97 1357.22L2257.34 1346.59C2213.06 1302.31 2190.03 1216.4 2250.26 1156.17L2260 1146.43 2561.14 846.173C2631.11 776.202 2631.11 663.718 2561.14 593.747 2491.17 523.777 2378.68 523.777 2308.71 593.747L2299.86 602.604 2321.11 623.861 2329.97 615.004C2387.54 557.433 2481.43 557.433 2539 615.004 2596.57 672.575 2596.57 766.46 2539 824.031L2238.74 1124.28 2236.97 1126.06C2219.26 1143.77 2207.74 1160.6 2198.89 1177.43 2190.03 1160.6 2177.63 1142.88 2159.92 1124.28L2150.17 1113.66 2030.6 994.086 2009.35 1015.34 2095.26 1101.26 2099.69 1106.57 2147.52 1154.4C2173.2 1180.08 2182.94 1211.08 2182.94 1241.2 2182.94 1242.08 2182.94 1243.85 2182.94 1244.74 2182.06 1283.71 2163.46 1321.8 2140.43 1346.59L2130.69 1356.34C2039.46 1447.57 1890.66 1447.57 1799.43 1356.34 1708.21 1265.11 1708.21 1116.31 1799.43 1025.09L2099.69 724.832 2078.43 703.575 1777.29 1003.83C1673.66 1107.46 1673.66 1274.85 1777.29 1378.48 1880.92 1482.11 2048.32 1482.11 2151.94 1378.48L2160.8 1369.62C2166.12 1364.31 2184.71 1343.94 2198.89 1313.82 2213.94 1345.71 2235.2 1366.08 2236.97 1368.74L2245.83 1379.37ZM2368.05 655.747 2359.2 664.604 2489.4 794.803 2498.25 785.946C2533.68 749.632 2533.68 692.061 2498.25 655.747 2462.83 619.433 2404.37 619.433 2368.05 655.747M1905.72 793.917 2035.92 663.718 2027.06 654.861C1991.63 619.433 1933.17 619.433 1896.86 654.861 1861.43 690.289 1861.43 748.746 1896.86 785.059L1905.72 793.917ZM1857.89 1087.08 1886.23 1058.74 2008.46 936.515 2158.14 786.831 2136.89 765.574 1836.63 1065.83C1766.66 1135.8 1766.66 1248.28 1836.63 1318.25 1906.6 1387.34 2019.09 1388.22 2089.06 1318.25L2097.92 1309.4C2104.12 1303.2 2158.14 1247.4 2081.09 1170.34L1967.72 1056.97 1946.46 1078.23 2025.29 1157.06 2042.12 1173.88C2043.89 1175.65 2046.54 1178.31 2049.2 1180.08 2075.77 1205.77 2117.4 1246.51 2076.66 1286.37L2067.8 1295.22C2010.23 1352.8 1916.35 1352.8 1858.78 1295.22 1800.32 1238.54 1800.32 1144.66 1857.89 1087.08M2327.31 956.001 2197.12 825.802 2066.92 956.001 2197.12 1086.2 2327.31 956.001ZM2368.05 1257.14C2403.48 1292.57 2461.94 1292.57 2498.25 1257.14 2533.68 1221.71 2533.68 1163.25 2498.25 1126.94L2489.4 1118.08 2359.2 1248.28 2368.05 1257.14ZM2035.92 1248.28 1905.72 1118.08 1896.86 1126.94C1861.43 1162.37 1861.43 1220.83 1896.86 1257.14 1932.29 1292.57 1990.75 1292.57 2027.06 1257.14L2035.92 1248.28Z" fill="#23275D" fill-rule="evenodd" fill-opacity="1"/></g></g></svg>